<svg width="211" height="30" viewBox="0 0 211 30" fill="none" xmlns="http://www.w3.org/2000/svg">
<path d="M174.924 2.96133C175.738 2.96133 176.398 2.29841 176.398 1.48066C176.398 0.662916 175.738 0 174.924 0C174.11 0 173.45 0.662916 173.45 1.48066C173.45 2.29841 174.11 2.96133 174.924 2.96133Z" fill="white"/>
<path d="M177.954 29.7778C178.768 29.7778 179.427 29.1149 179.427 28.2971C179.427 27.4794 178.768 26.8165 177.954 26.8165C177.14 26.8165 176.48 27.4794 176.48 28.2971C176.48 29.1149 177.14 29.7778 177.954 29.7778Z" fill="white"/>
<path d="M182.293 2.96133C183.107 2.96133 183.767 2.29841 183.767 1.48066C183.767 0.662916 183.107 0 182.293 0C181.479 0 180.819 0.662916 180.819 1.48066C180.819 2.29841 181.479 2.96133 182.293 2.96133Z" fill="white"/>
<path d="M182.293 7.32107C183.107 7.32107 183.767 6.65815 183.767 5.84041C183.767 5.02266 183.107 4.35974 182.293 4.35974C181.479 4.35974 180.819 5.02266 180.819 5.84041C180.819 6.65815 181.479 7.32107 182.293 7.32107Z" fill="white"/>
<path d="M182.293 25.2536C183.107 25.2536 183.767 24.5906 183.767 23.7729C183.767 22.9552 183.107 22.2922 182.293 22.2922C181.479 22.2922 180.819 22.9552 180.819 23.7729C180.819 24.5906 181.479 25.2536 182.293 25.2536Z" fill="white"/>
<path d="M182.293 29.7778C183.107 29.7778 183.767 29.1149 183.767 28.2971C183.767 27.4794 183.107 26.8165 182.293 26.8165C181.479 26.8165 180.819 27.4794 180.819 28.2971C180.819 29.1149 181.479 29.7778 182.293 29.7778Z" fill="white"/>
<path d="M186.715 2.96133C187.529 2.96133 188.188 2.29841 188.188 1.48066C188.188 0.662916 187.529 0 186.715 0C185.901 0 185.241 0.662916 185.241 1.48066C185.241 2.29841 185.901 2.96133 186.715 2.96133Z" fill="white"/>
<path d="M186.715 7.32107C187.529 7.32107 188.188 6.65815 188.188 5.84041C188.188 5.02266 187.529 4.35974 186.715 4.35974C185.901 4.35974 185.241 5.02266 185.241 5.84041C185.241 6.65815 185.901 7.32107 186.715 7.32107Z" fill="white"/>
<path d="M186.715 11.8453C187.529 11.8453 188.188 11.1824 188.188 10.3646C188.188 9.54689 187.529 8.88397 186.715 8.88397C185.901 8.88397 185.241 9.54689 185.241 10.3646C185.241 11.1824 185.901 11.8453 186.715 11.8453Z" fill="white"/>
<path d="M186.715 20.8116C187.529 20.8116 188.188 20.1487 188.188 19.3309C188.188 18.5132 187.529 17.8503 186.715 17.8503C185.901 17.8503 185.241 18.5132 185.241 19.3309C185.241 20.1487 185.901 20.8116 186.715 20.8116Z" fill="white"/>
<path d="M186.715 25.2536C187.529 25.2536 188.188 24.5906 188.188 23.7729C188.188 22.9552 187.529 22.2922 186.715 22.2922C185.901 22.2922 185.241 22.9552 185.241 23.7729C185.241 24.5906 185.901 25.2536 186.715 25.2536Z" fill="white"/>
<path d="M186.715 29.7778C187.529 29.7778 188.188 29.1149 188.188 28.2971C188.188 27.4794 187.529 26.8165 186.715 26.8165C185.901 26.8165 185.241 27.4794 185.241 28.2971C185.241 29.1149 185.901 29.7778 186.715 29.7778Z" fill="white"/>
<path d="M191.054 2.96133C191.868 2.96133 192.528 2.29841 192.528 1.48066C192.528 0.662916 191.868 0 191.054 0C190.24 0 189.58 0.662916 189.58 1.48066C189.58 2.29841 190.24 2.96133 191.054 2.96133Z" fill="white"/>
<path d="M191.054 7.32107C191.868 7.32107 192.528 6.65815 192.528 5.84041C192.528 5.02266 191.868 4.35974 191.054 4.35974C190.24 4.35974 189.58 5.02266 189.58 5.84041C189.58 6.65815 190.24 7.32107 191.054 7.32107Z" fill="white"/>
<path d="M191.054 11.8453C191.868 11.8453 192.528 11.1824 192.528 10.3646C192.528 9.54689 191.868 8.88397 191.054 8.88397C190.24 8.88397 189.58 9.54689 189.58 10.3646C189.58 11.1824 190.24 11.8453 191.054 11.8453Z" fill="white"/>
<path d="M191.054 16.2873C191.868 16.2873 192.528 15.6244 192.528 14.8067C192.528 13.9889 191.868 13.326 191.054 13.326C190.24 13.326 189.58 13.9889 189.58 14.8067C189.58 15.6244 190.24 16.2873 191.054 16.2873Z" fill="white"/>
<path d="M191.054 20.8116C191.868 20.8116 192.528 20.1487 192.528 19.3309C192.528 18.5132 191.868 17.8503 191.054 17.8503C190.24 17.8503 189.58 18.5132 189.58 19.3309C189.58 20.1487 190.24 20.8116 191.054 20.8116Z" fill="white"/>
<path d="M191.054 25.2536C191.868 25.2536 192.528 24.5906 192.528 23.7729C192.528 22.9552 191.868 22.2922 191.054 22.2922C190.24 22.2922 189.58 22.9552 189.58 23.7729C189.58 24.5906 190.24 25.2536 191.054 25.2536Z" fill="white"/>
<path d="M191.054 29.7778C191.868 29.7778 192.528 29.1149 192.528 28.2971C192.528 27.4794 191.868 26.8165 191.054 26.8165C190.24 26.8165 189.58 27.4794 189.58 28.2971C189.58 29.1149 190.24 29.7778 191.054 29.7778Z" fill="white"/>
<path d="M195.394 2.96133C196.207 2.96133 196.867 2.29841 196.867 1.48066C196.867 0.662916 196.207 0 195.394 0C194.58 0 193.92 0.662916 193.92 1.48066C193.92 2.29841 194.58 2.96133 195.394 2.96133Z" fill="white"/>
<path d="M195.394 7.32107C196.207 7.32107 196.867 6.65815 196.867 5.84041C196.867 5.02266 196.207 4.35974 195.394 4.35974C194.58 4.35974 193.92 5.02266 193.92 5.84041C193.92 6.65815 194.58 7.32107 195.394 7.32107Z" fill="white"/>
<path d="M195.394 11.8453C196.207 11.8453 196.867 11.1824 196.867 10.3646C196.867 9.54689 196.207 8.88397 195.394 8.88397C194.58 8.88397 193.92 9.54689 193.92 10.3646C193.92 11.1824 194.58 11.8453 195.394 11.8453Z" fill="white"/>
<path d="M195.394 16.2873C196.207 16.2873 196.867 15.6244 196.867 14.8067C196.867 13.9889 196.207 13.326 195.394 13.326C194.58 13.326 193.92 13.9889 193.92 14.8067C193.92 15.6244 194.58 16.2873 195.394 16.2873Z" fill="white"/>
<path d="M195.394 20.8116C196.207 20.8116 196.867 20.1487 196.867 19.3309C196.867 18.5132 196.207 17.8503 195.394 17.8503C194.58 17.8503 193.92 18.5132 193.92 19.3309C193.92 20.1487 194.58 20.8116 195.394 20.8116Z" fill="white"/>
<path d="M195.394 25.2536C196.207 25.2536 196.867 24.5906 196.867 23.7729C196.867 22.9552 196.207 22.2922 195.394 22.2922C194.58 22.2922 193.92 22.9552 193.92 23.7729C193.92 24.5906 194.58 25.2536 195.394 25.2536Z" fill="white"/>
<path d="M195.394 29.7778C196.207 29.7778 196.867 29.1149 196.867 28.2971C196.867 27.4794 196.207 26.8165 195.394 26.8165C194.58 26.8165 193.92 27.4794 193.92 28.2971C193.92 29.1149 194.58 29.7778 195.394 29.7778Z" fill="white"/>
<path d="M199.815 7.32107C200.629 7.32107 201.289 6.65815 201.289 5.84041C201.289 5.02266 200.629 4.35974 199.815 4.35974C199.001 4.35974 198.341 5.02266 198.341 5.84041C198.341 6.65815 199.001 7.32107 199.815 7.32107Z" fill="white"/>
<path d="M199.815 11.8453C200.629 11.8453 201.289 11.1824 201.289 10.3646C201.289 9.54689 200.629 8.88397 199.815 8.88397C199.001 8.88397 198.341 9.54689 198.341 10.3646C198.341 11.1824 199.001 11.8453 199.815 11.8453Z" fill="white"/>
<path d="M199.815 16.2873C200.629 16.2873 201.289 15.6244 201.289 14.8067C201.289 13.9889 200.629 13.326 199.815 13.326C199.001 13.326 198.341 13.9889 198.341 14.8067C198.341 15.6244 199.001 16.2873 199.815 16.2873Z" fill="white"/>
<path d="M199.815 20.8116C200.629 20.8116 201.289 20.1487 201.289 19.3309C201.289 18.5132 200.629 17.8503 199.815 17.8503C199.001 17.8503 198.341 18.5132 198.341 19.3309C198.341 20.1487 199.001 20.8116 199.815 20.8116Z" fill="white"/>
<path d="M199.815 25.2536C200.629 25.2536 201.289 24.5906 201.289 23.7729C201.289 22.9552 200.629 22.2922 199.815 22.2922C199.001 22.2922 198.341 22.9552 198.341 23.7729C198.341 24.5906 199.001 25.2536 199.815 25.2536Z" fill="white"/>
<path d="M204.318 11.8453C205.132 11.8453 205.792 11.1824 205.792 10.3646C205.792 9.54689 205.132 8.88397 204.318 8.88397C203.504 8.88397 202.844 9.54689 202.844 10.3646C202.844 11.1824 203.504 11.8453 204.318 11.8453Z" fill="white"/>
<path d="M204.318 16.2873C205.132 16.2873 205.792 15.6244 205.792 14.8067C205.792 13.9889 205.132 13.326 204.318 13.326C203.504 13.326 202.844 13.9889 202.844 14.8067C202.844 15.6244 203.504 16.2873 204.318 16.2873Z" fill="white"/>
<path d="M204.318 20.8116C205.132 20.8116 205.792 20.1487 205.792 19.3309C205.792 18.5132 205.132 17.8503 204.318 17.8503C203.504 17.8503 202.844 18.5132 202.844 19.3309C202.844 20.1487 203.504 20.8116 204.318 20.8116Z" fill="white"/>
<path d="M208.739 16.2873C209.553 16.2873 210.213 15.6244 210.213 14.8067C210.213 13.9889 209.553 13.326 208.739 13.326C207.925 13.326 207.266 13.9889 207.266 14.8067C207.266 15.6244 207.925 16.2873 208.739 16.2873Z" fill="white"/>
<path d="M112.253 23.3164H111.598L110.616 23.4809C109.797 23.6454 108.733 23.6454 107.914 23.4809C107.423 23.3164 107.259 22.8228 107.259 22.0003V11.4711H112.499C112.99 11.4711 113.481 10.9775 113.481 10.484V6.78231C113.481 6.61779 113.481 6.61779 113.318 6.45327V6.28875L113.154 6.12423C112.99 5.95972 112.663 5.7952 112.499 5.7952H107.259V1.02417C107.259 1.02417 107.259 0.859648 107.095 0.859648L106.931 0.695129H105.457L101.609 3.08065C101.282 3.24516 101.118 3.5742 101.118 3.90324V6.28875H96.0416C93.8309 6.12423 91.7021 6.94683 89.9827 8.34523C89.6552 8.67427 89.3277 9.00331 89.164 9.33234V7.44038C89.164 6.78231 88.6727 6.12423 88.0177 6.12423H84.1695C83.5145 6.12423 83.0232 6.61779 83.0232 7.44038V28.4165C83.0232 29.0745 83.5145 29.7326 84.1695 29.7326H87.8539C88.5089 29.7326 89.0002 29.2391 89.0002 28.4165V16.9002C89.0002 16.0776 89.164 15.4195 89.4915 14.6792C90.8015 11.9646 94.5678 11.8001 95.8779 11.8001H100.954V23.3164C100.627 26.36 102.837 29.2391 105.867 29.7326H108.078C108.569 29.7326 109.224 29.7326 109.797 29.5681C110.779 29.5681 111.844 29.4036 112.663 29.0745C113.154 28.91 113.481 28.4165 113.481 27.9229V24.5503C113.481 23.6454 112.99 23.3164 112.253 23.3164V23.3164Z" fill="white"/>
<path d="M30.5401 11.9646L28.9026 11.6356C25.5456 11.142 22.8437 10.6485 22.8437 8.75652C22.8437 6.86456 25.0543 5.71293 28.4113 5.71293C31.1132 5.71293 33.8152 6.37101 36.3534 7.76941C36.8446 8.09845 37.4996 7.93393 37.8271 7.44038C38.3184 6.7823 38.6459 6.12423 39.1372 5.3839C39.3009 5.05486 39.4647 4.72582 39.7922 4.39679C39.9559 4.06775 40.1197 3.73871 39.9559 3.40968C39.7922 3.08064 39.6284 2.7516 39.3009 2.7516C35.944 1.02416 32.0958 0.0370509 28.1657 0.201569C25.1362 0.0370509 22.1068 0.859642 19.4867 2.50483C17.1123 3.98549 15.6385 6.53552 15.6385 9.41459C15.6385 14.1856 18.8317 16.8179 25.3819 17.8873L27.4288 18.2163C31.4407 18.7099 33.6514 19.368 33.6514 21.2599C33.6514 23.1519 31.277 24.3035 27.92 24.3035C24.7268 24.3035 21.6974 23.4809 18.9955 21.7535C18.5042 21.4244 17.6854 21.4244 17.276 21.918C16.7848 22.4115 15.0654 24.9616 14.9016 25.2906C14.5741 25.7842 14.9016 26.4422 15.3929 26.7713C19.0773 28.9923 23.4987 29.9794 27.8382 29.9794C31.0314 30.1439 34.0608 29.3213 36.7627 27.5939C39.3009 26.1132 40.7747 23.3987 40.7747 20.5196C40.611 15.7486 37.0902 13.034 30.5401 11.9646V11.9646Z" fill="white"/>
<path d="M130.921 11.9646L129.202 11.6356C125.845 11.1421 123.143 10.6485 123.143 8.75653C123.143 6.86457 125.353 5.71295 128.71 5.71295C131.412 5.71295 134.114 6.37102 136.653 7.76942C137.144 8.09846 137.799 7.93394 138.126 7.44039C138.618 6.78231 138.945 6.12424 139.436 5.38391C139.6 5.05487 139.764 4.72584 140.091 4.3968C140.255 4.06776 140.419 3.73873 140.255 3.40969C140.091 3.08065 139.928 2.75162 139.6 2.75162C136.243 1.02417 132.395 0.0370636 128.465 0.201582C125.435 0.0370636 122.406 0.859655 119.704 2.5871C117.33 3.73873 115.856 6.45328 115.856 9.16783C115.856 13.9389 119.049 16.5712 125.599 17.6405L127.646 17.9696C131.658 18.4631 133.869 19.1212 133.869 21.0131C133.869 22.9051 131.494 24.0567 128.137 24.0567C124.944 24.0567 121.915 23.2341 119.213 21.5067C118.721 21.1777 117.903 21.1777 117.493 21.6712C117.002 22.1648 115.283 24.7148 115.119 25.0438C114.791 25.5374 115.119 26.1955 115.61 26.5245C119.295 28.7455 123.716 29.7326 127.892 29.7326C131.085 29.8971 134.114 29.0745 136.816 27.3471C139.354 25.8664 140.828 23.1519 140.828 20.2728C141.074 15.7486 137.717 13.034 130.921 11.9646V11.9646Z" fill="white"/>
<path d="M158.514 6.12422C157.204 5.79519 155.812 5.63067 154.502 5.63067C148.279 5.13711 142.875 9.82588 142.384 16.2421V17.5582C142.384 24.9616 147.297 29.7326 154.993 29.7326C158.186 29.7326 161.379 28.7455 163.918 26.8535C164.245 26.689 164.409 26.1955 164.409 25.8664C164.409 25.5374 164.245 25.2083 163.918 24.8793C162.444 23.3986 161.871 22.9873 161.871 22.8228C161.543 22.4938 161.216 22.4938 160.888 22.4938C160.561 22.4938 160.397 22.6583 160.069 22.8228L159.906 22.9873C158.432 23.8099 156.712 24.139 154.993 24.3035C151.472 24.3035 148.934 22.5761 148.607 19.9438H164.9C165.555 19.9438 166.046 19.4502 166.046 18.7921V17.805C166.21 15.0905 165.391 12.3759 163.999 10.2372C162.771 8.09844 160.888 6.7823 158.514 6.12422V6.12422ZM160.233 14.8437H148.607C149.425 12.2937 151.964 10.6485 154.665 10.9775C157.859 10.9775 159.906 12.3759 160.233 14.8437V14.8437Z" fill="white"/>
<path d="M54.1207 23.3164H53.6294L52.4831 23.4809C51.6644 23.6454 50.6 23.6454 49.7812 23.4809C49.2899 23.3164 49.1262 22.8228 49.1262 22.0002V11.4711H54.2026C54.8576 11.4711 55.3488 10.9775 55.3488 10.1549V7.1936C55.3488 6.53552 54.8576 5.87745 54.2026 5.87745H49.2899V1.35319C49.2899 0.695122 48.7987 0.0370483 48.1437 0.0370483C47.9799 0.0370483 47.6524 0.0370482 47.4887 0.201567L43.6404 2.58708C43.3129 2.7516 43.1492 3.24516 43.1492 3.57419V22.8228C42.8217 25.8664 45.0323 28.7455 48.0618 29.2391H50.2725C50.7637 29.2391 51.4187 29.2391 51.9919 29.0745C52.9744 29.0745 54.0388 28.91 54.8576 28.581C55.3488 28.4165 55.6763 27.9229 55.6763 27.4294V24.3858C55.267 23.8099 54.7757 23.3164 54.1207 23.3164V23.3164Z" fill="white"/>
<path d="M78.5199 5.87746H74.8355C74.1805 5.87746 73.6892 6.37101 73.6892 7.1936V7.35812C71.9698 6.20649 70.1685 5.63068 68.1216 5.63068H67.9578C64.9284 5.46616 61.8989 6.61779 59.5245 8.50975C57.1501 10.8953 55.84 14.2679 56.0038 17.6405C55.84 21.0131 57.1501 24.2212 59.3607 26.6068C61.6533 28.7455 64.519 29.7326 67.7122 29.7326H68.0397C70.0866 29.7326 72.0517 29.0745 73.6073 27.8407V28.1697C73.6073 28.8278 74.0986 29.4858 74.7536 29.4858H78.4381C79.0931 29.4858 79.5843 28.9923 79.5843 28.1697V7.27586C79.83 6.45327 79.175 5.87746 78.5199 5.87746V5.87746ZM62.3083 19.9438L62.4721 19.7793V16.7357H62.3083H62.4721V15.584C62.7996 14.4324 63.2908 13.363 64.1915 12.705L64.519 12.3759L64.6827 12.2114C64.8465 12.0469 65.0103 12.0469 65.0103 11.8824C65.174 11.7179 65.3378 11.7179 65.5015 11.5533C65.829 11.3888 66.1565 11.2243 66.6478 11.2243C66.8115 11.2243 66.9753 11.0598 67.1391 11.0598H68.4491C70.496 10.8953 72.2973 11.8824 73.5255 13.4453V21.1777C72.3792 22.6583 70.496 23.7277 68.4491 23.5632C66.7297 23.5632 65.2559 23.0696 63.9459 21.8357L63.7821 21.6712L63.7002 21.4244L63.5365 21.2599L63.3727 21.0954L63.209 20.9309C63.0452 20.6018 62.7177 20.2728 62.7177 19.9438C62.7177 19.7793 62.7177 19.7793 62.5539 19.6147L62.3083 19.9438V19.9438Z" fill="white"/>
<path d="M3.68446 29.7507C5.71933 29.7507 7.36892 28.0934 7.36892 26.049C7.36892 24.0047 5.71933 22.3474 3.68446 22.3474C1.64959 22.3474 0 24.0047 0 26.049C0 28.0934 1.64959 29.7507 3.68446 29.7507Z" fill="white"/>
</svg>
